# xmcd
#
# Track frame offsets: 
#        150
#        22249
#        48698
#        72482
#        90618
#        105156
#        129917
#        147471
#        177768
#
# Disc length: 2570 seconds
#
# Revision: 1
# Processed by: cddbd v1.5.2PL0 Copyright (c) Steve Scherf et al.
# Submitted via: ExactAudioCopyFreeDBPlugin 1.0
#
DISCID=7c0a0809
DTITLE=Paul Banks - Comes love
DYEAR=2002
DGENRE=Blues
TTITLE0=Make me a pallet on your floor
TTITLE1=Comes Love
TTITLE2=Time problem
TTITLE3=Fiesta mojo
TTITLE4=Staggolee
TTITLE5=Big seven up
TTITLE6=Hesitation blues
TTITLE7=American legend
TTITLE8=Hobo's lullabye
EXTD=YEAR: 2002
EXTT0=
EXTT1=
EXTT2=
EXTT3=
EXTT4=
EXTT5=
EXTT6=
EXTT7=
EXTT8=
PLAYORDER=
